<svg width="180" height="41" viewBox="0 0 180 41" fill="none" xmlns="http://www.w3.org/2000/svg">
<path d="M37.6033 31.9857L32.0702 36.6286H36.0926C36.2976 36.245 36.6891 35.9655 37.1367 35.9225C37.5288 35.8852 37.9194 36.0444 38.5435 36.6286H40.3165C40.3527 36.0913 40.3167 35.5307 40.2014 34.9444L49.5641 27.0882C49.6667 27.0021 49.6801 26.8491 49.594 26.7465L49.5086 26.6447C49.9767 25.5909 50.1599 24.5645 49.839 23.5856C49.7489 23.3107 49.4818 23.1289 49.1929 23.1362C48.496 23.1554 47.8059 23.3771 47.1226 23.8012C47.0365 23.6986 46.8835 23.6852 46.7809 23.7713L37.6635 31.4217C37.4971 31.5614 37.4754 31.8095 37.615 31.976L37.6033 31.9857Z" fill="#E6E6E6"/>
<path d="M47.5242 24.6836C48.0778 24.2484 49.1016 23.7432 49.7677 23.4362C49.6446 23.2471 49.4257 23.1299 49.193 23.136C48.4961 23.1552 47.806 23.3768 47.1227 23.801C47.0364 23.6982 46.8838 23.6848 46.781 23.7711L47.5242 24.6836Z" fill="white"/>
<path d="M34.24 36.6286L38.4998 33.0543L37.6032 31.9858L32.0701 36.6286H34.24Z" fill="white"/>
<path opacity="0.25" d="M49.2914 23.9992C49.4566 24.196 49.4309 24.4893 49.2341 24.6545C49.0373 24.8196 48.744 24.7939 48.5788 24.5972C48.4137 24.4004 48.4394 24.107 48.6361 23.9419C48.8329 23.7767 49.1263 23.8024 49.2914 23.9992Z" fill="#1A1D63"/>
<path d="M49.1388 24.1272C49.2332 24.2396 49.2185 24.4073 49.1061 24.5016C48.9936 24.596 48.8259 24.5813 48.7316 24.4689C48.6373 24.3565 48.6519 24.1888 48.7644 24.0944C48.8768 24.0001 49.0445 24.0147 49.1388 24.1272Z" fill="#1A1D63"/>
<path d="M37.6636 31.4215C37.4972 31.5611 37.4755 31.8093 37.6151 31.9757L40.2014 34.9442L49.5642 27.088C49.6668 27.0019 49.6801 26.8489 49.594 26.7463L47.1227 23.801C47.0366 23.6984 46.8836 23.685 46.7809 23.7711L37.6636 31.4215Z" fill="#C537A6"/>
<path d="M38.1698 32.6372L38.2759 32.7636L39.3936 33.9819L48.9421 25.9698L47.7743 24.5781L38.1698 32.6372Z" fill="#934B90"/>
<path opacity="0.2" d="M49.594 26.7467L49.4944 26.6284C45.526 29.0784 42.9636 29.0512 40.9123 28.6957L37.6636 31.4215C37.4975 31.5617 37.4755 31.8095 37.6151 31.9757L40.2013 34.9447L49.5642 27.0883C49.6664 27.0018 49.6804 26.849 49.594 26.7467Z" fill="#1A1D63"/>
<path d="M40.4968 32.0228L40.4196 32.9051C40.4106 33.0085 40.3194 33.085 40.216 33.0759L39.3337 32.9988C39.2303 32.9898 39.1538 32.8985 39.1628 32.7951L39.24 31.9128C39.2491 31.8094 39.3402 31.7329 39.4436 31.7419L40.326 31.8191C40.4294 31.8282 40.5059 31.9194 40.4968 32.0228Z" fill="#F2F2F2"/>
<path d="M41.9977 30.764L41.9205 31.6463C41.9115 31.7497 41.8203 31.8262 41.7168 31.8171L40.8345 31.7399C40.7311 31.7309 40.6546 31.6397 40.6637 31.5363L40.7409 30.654C40.7499 30.5506 40.8411 30.4741 40.9445 30.4832L41.8268 30.5603C41.9302 30.5693 42.0067 30.6606 41.9977 30.764Z" fill="#F2F2F2"/>
<path d="M43.4978 29.5042L43.4206 30.3866C43.4116 30.49 43.3204 30.5665 43.217 30.5574L42.3347 30.4802C42.2313 30.4712 42.1548 30.38 42.1638 30.2766L42.241 29.3942C42.25 29.2908 42.3412 29.2143 42.4446 29.2234L43.327 29.3006C43.4304 29.3097 43.5069 29.4008 43.4978 29.5042Z" fill="#F2F2F2"/>
<path d="M44.9986 28.2457L44.9215 29.128C44.9124 29.2314 44.8212 29.3079 44.7178 29.2988L43.8355 29.2217C43.7321 29.2127 43.6556 29.1214 43.6647 29.018L43.7418 28.1357C43.7509 28.0323 43.8421 27.9558 43.9455 27.9648L44.8279 28.042C44.9312 28.0511 45.0077 28.1422 44.9986 28.2457Z" fill="#F2F2F2"/>
<path d="M46.499 26.9861L46.4218 27.8684C46.4128 27.9719 46.3216 28.0484 46.2182 28.0393L45.3359 27.9621C45.2325 27.953 45.156 27.8619 45.165 27.7585L45.2422 26.8762C45.2512 26.7727 45.3424 26.6962 45.4458 26.7053L46.3282 26.7825C46.4316 26.7916 46.5081 26.8827 46.499 26.9861Z" fill="#F2F2F2"/>
<path d="M47.9997 25.7271L47.9225 26.6094C47.9135 26.7128 47.8223 26.7893 47.7188 26.7802L46.8365 26.7031C46.7331 26.694 46.6566 26.6028 46.6656 26.4994L46.7428 25.6171C46.7519 25.5137 46.8431 25.4372 46.9465 25.4463L47.8288 25.5235C47.9322 25.5325 48.0087 25.6237 47.9997 25.7271Z" fill="#F2F2F2"/>
<path d="M0.406318 26.7463C0.320224 26.8489 0.333573 27.0019 0.436197 27.088L9.79893 34.9442C9.68358 35.5305 9.64765 36.0911 9.68379 36.6284H11.4568C12.0809 36.0442 12.4715 35.885 12.8636 35.9223C13.3112 35.9653 13.7027 36.2449 13.9077 36.6284H17.9301L12.397 31.9855L12.3853 31.9757C12.525 31.8093 12.5033 31.5611 12.3368 31.4215L3.21946 23.7711C3.11683 23.685 2.96384 23.6983 2.87774 23.801C2.19442 23.3768 1.50436 23.1551 0.807425 23.136C0.518586 23.1287 0.251494 23.3105 0.161385 23.5853C-0.159524 24.5643 0.0236661 25.5907 0.491784 26.6445L0.406318 26.7463Z" fill="#E6E6E6"/>
<path d="M2.47604 24.6836C1.92245 24.2484 0.89861 23.7432 0.232544 23.4362C0.355609 23.2471 0.57457 23.1299 0.807195 23.136C1.50413 23.1552 2.19424 23.3768 2.87751 23.801C2.96382 23.6982 3.11639 23.6848 3.21923 23.7711L2.47604 24.6836Z" fill="white"/>
<path d="M17.9302 36.6286L12.397 31.9858L11.5005 33.0543L15.7603 36.6286H17.9302Z" fill="white"/>
<path opacity="0.25" d="M0.708692 23.9987C0.543544 24.1955 0.569252 24.4889 0.766001 24.654C0.962801 24.8192 1.25618 24.7934 1.42133 24.5967C1.58647 24.3999 1.56076 24.1065 1.36402 23.9414C1.16722 23.7762 0.873839 23.8019 0.708692 23.9987Z" fill="#1A1D63"/>
<path d="M0.861516 24.1272C0.767131 24.2396 0.781836 24.4073 0.894263 24.5017C1.00669 24.596 1.1744 24.5813 1.26873 24.4689C1.36311 24.3565 1.34841 24.1888 1.23598 24.0944C1.1235 24.0001 0.955849 24.0147 0.861516 24.1272Z" fill="#1A1D63"/>
<path d="M3.21921 23.7711C3.11659 23.685 2.96359 23.6984 2.8775 23.801L0.406121 26.7463C0.320027 26.8489 0.333377 27.0019 0.436001 27.088L9.79873 34.9442L12.385 31.9757C12.5247 31.8092 12.503 31.5611 12.3365 31.4215L3.21921 23.7711Z" fill="#C537A6"/>
<path d="M2.22599 24.5779L1.05823 25.9696L10.6067 33.9818L11.7244 32.7635L11.8305 32.637L2.22599 24.5779Z" fill="#934B90"/>
<path opacity="0.2" d="M0.436036 27.0878L9.79887 34.9442L12.3851 31.9752C12.5247 31.809 12.5027 31.5612 12.3366 31.421L9.0879 28.6952C7.03657 29.0507 4.47425 29.0779 0.50586 26.6279L0.406207 26.7462C0.319749 26.8486 0.333673 27.0014 0.436036 27.0878Z" fill="#1A1D63"/>
<path d="M9.50342 32.0226L9.58065 32.9049C9.58972 33.0083 9.68087 33.0848 9.78428 33.0757L10.6666 32.9985C10.77 32.9895 10.8465 32.8983 10.8374 32.7949L10.7602 31.9125C10.7512 31.8091 10.66 31.7326 10.5566 31.7417L9.6743 31.8189C9.57084 31.828 9.49434 31.9192 9.50342 32.0226Z" fill="#F2F2F2"/>
<path d="M8.0028 30.7637L8.07997 31.646C8.08899 31.7494 8.1802 31.8259 8.28361 31.8169L9.16592 31.7397C9.26933 31.7306 9.34583 31.6395 9.33675 31.5361L9.25958 30.6537C9.25056 30.5503 9.15935 30.4738 9.05595 30.4829L8.17358 30.5601C8.07028 30.5691 7.99378 30.6603 8.0028 30.7637Z" fill="#F2F2F2"/>
<path d="M6.50244 29.5042L6.57967 30.3866C6.58869 30.49 6.6799 30.5665 6.7833 30.5574L7.66562 30.4802C7.76902 30.4712 7.84552 30.38 7.83645 30.2766L7.75927 29.3942C7.7502 29.2908 7.65905 29.2143 7.55564 29.2234L6.67327 29.3006C6.56986 29.3097 6.49337 29.4008 6.50244 29.5042Z" fill="#F2F2F2"/>
<path d="M5.00182 28.2455L5.079 29.1278C5.08807 29.2312 5.17922 29.3077 5.28263 29.2986L6.16495 29.2214C6.26836 29.2124 6.34485 29.1212 6.33578 29.0178L6.2586 28.1354C6.24953 28.032 6.15838 27.9555 6.05497 27.9646L5.17265 28.0418C5.0693 28.0508 4.9928 28.142 5.00182 28.2455Z" fill="#F2F2F2"/>
<path d="M3.50122 26.9861L3.57845 27.8684C3.58747 27.9719 3.67867 28.0484 3.78208 28.0393L4.66439 27.9621C4.7678 27.953 4.8443 27.8619 4.83523 27.7585L4.75805 26.8762C4.74898 26.7727 4.65783 26.6962 4.55442 26.7053L3.67205 26.7825C3.56864 26.7916 3.49215 26.8827 3.50122 26.9861Z" fill="#F2F2F2"/>
<path d="M2.00072 25.7271L2.0779 26.6094C2.08697 26.7128 2.17813 26.7893 2.28153 26.7802L3.16385 26.7031C3.26725 26.694 3.34375 26.6028 3.33468 26.4994L3.2575 25.6171C3.24843 25.5137 3.15728 25.4372 3.05387 25.4463L2.1715 25.5235C2.06815 25.5325 1.9917 25.6237 2.00072 25.7271Z" fill="#F2F2F2"/>
<path d="M42.8674 36.6285C42.2534 35.6997 41.562 34.8218 40.8079 33.9988C36.7465 29.5686 33.5436 28.6828 30.7892 28.1067H19.2109C16.4566 28.6828 13.2537 29.5686 9.19225 33.9988C8.43816 34.8217 7.74706 35.6998 7.1333 36.6285H42.8674Z" fill="#3E4562"/>
<g opacity="0.5">
<path d="M37.2407 30.7865C33.7382 32.7221 29.5286 33.8498 24.9999 33.8498C20.4713 33.8498 16.2618 32.7221 12.7592 30.7865C15.2105 29.0461 17.317 28.5032 19.2108 28.1072H30.7891C32.6829 28.5032 34.7894 29.0461 37.2407 30.7865Z" fill="#1A1D63"/>
</g>
<path d="M37.725 13.1853C37.7163 14.5137 37.174 15.7158 36.3014 16.5885C35.4229 17.4679 34.2082 18.0121 32.8662 18.0121H32.5435C30.6914 18.0121 28.8664 17.6322 27.1396 16.9655C26.3875 16.675 25.5945 16.5302 24.8006 16.5302C24.0067 16.5302 23.2137 16.675 22.4616 16.9655C20.7347 17.6322 18.9098 18.0121 17.0576 18.0121H16.735C15.393 18.0121 14.1783 17.4679 13.2998 16.5885C12.4272 15.7158 11.8849 14.5138 11.8762 13.1853C11.8607 10.7647 13.5846 8.97566 15.9945 8.42954C16.3832 8.3411 16.7807 8.29641 17.1781 8.27696C19.7174 7.99709 22.2585 7.85718 24.8006 7.85718C27.3428 7.85718 29.8839 7.99709 32.4231 8.27696C32.8206 8.29641 33.2181 8.3411 33.6068 8.42954C36.0167 8.97566 37.7406 10.7647 37.725 13.1853Z" fill="white"/>
<path d="M40.8877 14.2673C28.6171 13.1955 25.6965 4.60745 25.0088 0.181885C26.0753 0.198519 27.1405 0.343329 28.1825 0.617775C33.1111 1.91554 37.1937 4.30776 39.4444 9.07154C40.0305 10.3135 40.4026 11.6438 40.6385 12.9968C40.715 13.436 40.798 13.8593 40.8877 14.2673Z" fill="#6CCFF9"/>
<path d="M45.9066 1.8978C45.8873 1.7337 45.8487 1.57617 45.7949 1.42734C45.7949 1.42666 45.7942 1.42603 45.7942 1.42536C45.7756 1.37488 45.7557 1.32571 45.7337 1.27716C45.7304 1.26986 45.7271 1.26256 45.7238 1.2552C45.7025 1.20999 45.6806 1.16551 45.6567 1.12228C45.652 1.11363 45.6467 1.10633 45.6427 1.09772C45.6228 1.06315 45.6015 1.02925 45.5802 0.996035C45.5723 0.984094 45.565 0.971475 45.5563 0.959481C45.533 0.925586 45.5091 0.892368 45.4839 0.859151C45.4712 0.843194 45.4586 0.827237 45.446 0.811958C45.4221 0.782079 45.3975 0.752826 45.3716 0.724249C45.3563 0.706989 45.3404 0.691031 45.3244 0.674396C45.3084 0.657814 45.2919 0.641857 45.2752 0.625222C45.248 0.599306 45.2207 0.573389 45.1922 0.548828C45.1769 0.534853 45.1609 0.521607 45.145 0.50831C45.125 0.491675 45.1044 0.475093 45.0832 0.459136C45.0566 0.438538 45.0294 0.418618 45.0015 0.398646C44.9789 0.383367 44.9563 0.368766 44.9337 0.354113C44.9177 0.343475 44.9018 0.334193 44.8858 0.324233C44.8506 0.302958 44.8153 0.28236 44.7788 0.263118C44.7609 0.253836 44.7429 0.244501 44.725 0.235219C44.6977 0.221922 44.6698 0.208625 44.6419 0.196006C44.6133 0.182709 44.5841 0.170766 44.5549 0.158772C44.5336 0.150116 44.5124 0.142139 44.4911 0.134838C44.4532 0.120863 44.4153 0.108243 44.3768 0.0963012C44.3608 0.0916602 44.3449 0.0870205 44.3283 0.0830052C44.2917 0.0723673 44.2552 0.0630851 44.2173 0.0551067C44.2067 0.0524472 44.1967 0.049787 44.1861 0.0471275C44.1362 0.0371675 44.0858 0.0285108 44.0346 0.0218882C44.0273 0.0205324 44.0206 0.0199069 44.0133 0.0185511C43.9004 0.00395007 43.7854 -0.00204646 43.6684 0.000613007C40.3785 0.0843601 37.2447 0.905666 34.4126 3.15698C33.8252 2.78221 33.2099 2.44331 32.5693 2.137C32.5387 2.1224 32.5088 2.10707 32.4782 2.09247C32.4583 2.08318 32.437 2.07385 32.4164 2.06457C32.3075 2.01341 32.1972 1.96356 32.0862 1.91439C32.045 1.89577 32.0038 1.87715 31.9619 1.85859C31.8131 1.79346 31.6629 1.72968 31.5108 1.66789C31.5081 1.66653 31.5054 1.66523 31.5028 1.66393C31.3426 1.5988 31.1805 1.53502 31.0177 1.47323C30.9905 1.46259 30.9626 1.45263 30.9347 1.44267C30.8031 1.39282 30.6715 1.34432 30.5386 1.29713C30.4934 1.28117 30.4476 1.26522 30.4024 1.24926C30.2841 1.20874 30.1659 1.16817 30.0469 1.12833C29.9977 1.11237 29.9492 1.09642 29.9 1.08051C29.7797 1.0413 29.6588 1.00276 29.5372 0.965582C29.492 0.951607 29.4468 0.937006 29.4016 0.923708C29.2634 0.881835 29.1252 0.841317 28.9856 0.801425C28.9577 0.792769 28.9298 0.784791 28.9019 0.776865C28.7291 0.728369 28.5564 0.680498 28.3816 0.634661C27.848 0.493761 27.3077 0.387487 26.7648 0.315056C26.1794 0.232664 25.5913 0.185472 24.9999 0.17619C23.8616 0.194129 22.7346 0.348951 21.6183 0.634713C20.1717 1.01549 18.7975 1.49127 17.5217 2.09262C16.8545 2.40759 16.2173 2.77173 15.6139 3.17774C12.7745 0.910464 9.63139 0.0844639 6.33146 0.000768963C6.2145 -0.0018905 6.09957 0.00410762 5.98657 0.0187086C5.97927 0.0200123 5.97191 0.0206899 5.96529 0.0220457C5.91413 0.0286683 5.8636 0.0373235 5.81375 0.0472835C5.80311 0.0499429 5.79315 0.0526032 5.78252 0.0552627C5.74466 0.063241 5.7081 0.0725233 5.67155 0.0831612C5.65491 0.0871243 5.63901 0.0918177 5.62305 0.0964588C5.58452 0.1084 5.54666 0.121019 5.50875 0.134994C5.48747 0.142295 5.46625 0.150274 5.44497 0.15893C5.41572 0.170872 5.38652 0.182865 5.35794 0.196162C5.33004 0.208781 5.30214 0.22208 5.27487 0.235377C5.25693 0.244659 5.239 0.253993 5.22106 0.263275C5.1845 0.282517 5.1493 0.303167 5.11337 0.324391C5.0981 0.334351 5.08214 0.343685 5.06618 0.354271C5.0436 0.368872 5.02097 0.383525 4.99839 0.398804C4.97049 0.418724 4.94322 0.438694 4.91668 0.459292C4.8954 0.475249 4.87481 0.491833 4.85489 0.508468C4.83893 0.521765 4.82297 0.535061 4.80769 0.548984C4.77912 0.573545 4.75189 0.599515 4.72462 0.62538C4.70799 0.642015 4.69141 0.657919 4.67545 0.674554C4.65949 0.691188 4.64354 0.707093 4.62826 0.724405C4.60234 0.752982 4.57773 0.782236 4.55384 0.812116C4.54123 0.827395 4.52861 0.843352 4.51593 0.859308C4.4907 0.892526 4.46676 0.925742 4.4435 0.959637C4.43485 0.971579 4.42754 0.984199 4.41962 0.996193C4.39834 1.02941 4.37707 1.06331 4.35715 1.0985C4.35251 1.10648 4.34781 1.11446 4.34317 1.12244C4.31924 1.16562 4.29728 1.21015 4.27606 1.25536C4.27272 1.26266 4.26944 1.26996 4.2661 1.27731C4.24415 1.32581 4.22423 1.37498 4.20566 1.42551C4.20566 1.42619 4.20499 1.42687 4.20499 1.4275C4.15117 1.57632 4.11263 1.73386 4.09334 1.89796C3.55978 6.37071 4.97451 10.1989 9.13626 13.1167C7.39462 20.0242 7.73483 24.7089 10.1596 27.238C13.6974 30.3917 18.412 32.045 24.9999 31.5054C31.5877 32.045 36.3024 30.3917 39.8402 27.238C42.2649 24.7089 42.6051 20.0242 40.8635 13.1167C45.0254 10.1988 46.4401 6.37056 45.9066 1.8978ZM36.5005 16.6278C35.6221 17.5069 34.4074 18.0511 33.0657 18.0511H32.7428C30.8908 18.0511 29.0661 17.671 27.3391 17.0046C26.5868 16.7142 25.7941 16.5693 25 16.5693C24.2059 16.5693 23.4132 16.7142 22.661 17.0046C20.934 17.671 19.1093 18.0511 17.2573 18.0511H16.9343C15.5927 18.0511 14.378 17.5069 13.4995 16.6278C12.6264 15.7547 12.0841 14.5526 12.0755 13.2242C12.0602 10.8034 13.7839 9.01459 16.1941 8.46835C16.5828 8.37997 16.9802 8.33543 17.3775 8.31619C19.9166 8.03643 22.4576 7.8962 25 7.8962C27.5424 7.8962 30.0835 8.03643 32.6225 8.31619C33.0199 8.33549 33.4173 8.37997 33.806 8.46835C36.2161 9.01459 37.9398 10.8034 37.9246 13.2242C37.916 14.5526 37.3737 15.7547 36.5005 16.6278Z" fill="#3E4562"/>
<path opacity="0.5" d="M45.7817 6.0437C45.2308 8.76152 43.6733 11.1464 40.8637 13.1166C40.8551 13.0821 40.8465 13.0475 40.8378 13.013L40.279 11.1769C40.277 11.1696 40.2743 11.163 40.2723 11.1557C42.733 10.644 44.361 9.02001 45.7817 6.0437Z" fill="#1A1D63"/>
<path opacity="0.5" d="M4.21838 6.0437C4.76926 8.76152 6.32682 11.1464 9.13636 13.1166C9.14502 13.0821 9.15362 13.0475 9.16228 13.013L9.72113 11.1769C9.72311 11.1696 9.72577 11.163 9.72775 11.1557C7.26712 10.644 5.63906 9.02001 4.21838 6.0437Z" fill="#1A1D63"/>
<path opacity="0.5" d="M37.9165 12.9159C37.4188 11.1663 35.8971 9.90768 33.9188 9.46517C33.5255 9.37678 33.1228 9.33225 32.7201 9.31301C30.1485 9.03324 27.5749 8.89307 24.9999 8.89307C22.425 8.89307 19.8514 9.03329 17.2798 9.31301C16.8771 9.3323 16.4744 9.37678 16.081 9.46517C14.1028 9.90774 12.5811 11.1663 12.0834 12.9159C12.2096 10.652 13.8875 8.99069 16.194 8.46839C16.5827 8.38 16.9801 8.33547 17.3774 8.31623C19.9165 8.03646 22.4575 7.89624 24.9999 7.89624C27.5423 7.89624 30.0834 8.03646 32.6224 8.31623C33.0198 8.33552 33.4172 8.38 33.8059 8.46839C36.1124 8.99069 37.7902 10.6519 37.9165 12.9159Z" fill="#1A1D63"/>
<path opacity="0.5" d="M39.8403 27.238C36.3025 30.3917 31.5879 32.045 25 31.5054C18.4122 32.045 13.6975 30.3917 10.1598 27.238C8.63139 25.6439 7.93101 23.1945 8.05794 19.8713C8.16427 22.4609 8.86532 24.4258 10.1598 25.7761C13.6976 28.9298 18.4122 30.5831 25 30.0435C31.5879 30.583 36.3026 28.9298 39.8403 25.7761C41.1348 24.4258 41.8358 22.4609 41.9422 19.8713C42.0691 23.1945 41.3687 25.6439 39.8403 27.238Z" fill="#1A1D63"/>
<path d="M14.1462 11.9586C14.3137 11.7091 14.5114 11.4858 14.7262 11.2771C14.9415 11.0691 15.1797 10.8826 15.4367 10.718C15.9494 10.3919 16.5545 10.1575 17.202 10.1174C17.5245 10.0978 17.8526 10.1323 18.1654 10.2141C18.4778 10.2979 18.775 10.4284 19.038 10.6009C19.3016 10.7727 19.5351 10.9785 19.7349 11.2073C19.9337 11.4373 20.1038 11.6862 20.2314 11.9586C19.9742 11.8023 19.7322 11.6462 19.486 11.5101C19.2409 11.3731 18.9962 11.2522 18.7488 11.1573C18.2544 10.9652 17.7541 10.8855 17.2488 10.9133C16.7429 10.9438 16.2316 11.0808 15.7193 11.2752C15.2033 11.4655 14.697 11.7222 14.1462 11.9586Z" fill="#1A1D63"/>
<path d="M35.8537 11.9586C35.3029 11.7221 34.7966 11.4654 34.2806 11.2752C33.7683 11.0808 33.257 10.9438 32.7511 10.9133C32.2458 10.8855 31.7455 10.9652 31.2511 11.1573C31.0037 11.2522 30.759 11.3731 30.5139 11.5101C30.2677 11.6462 30.0257 11.8023 29.7686 11.9586C29.8962 11.6862 30.0662 11.4373 30.265 11.2073C30.4648 10.9785 30.6983 10.7727 30.9619 10.6009C31.225 10.4284 31.5222 10.298 31.8345 10.2141C32.1473 10.1323 32.4754 10.0978 32.7979 10.1174C33.4454 10.1575 34.0506 10.3919 34.5633 10.718C34.8202 10.8826 35.0584 11.069 35.2737 11.2771C35.4885 11.4857 35.6861 11.709 35.8537 11.9586Z" fill="#1A1D63"/>
<path d="M32.7748 16.4372C34.151 16.4372 35.2667 15.1416 35.2667 13.5434C35.2667 11.9452 34.151 10.6497 32.7748 10.6497C31.3986 10.6497 30.283 11.9452 30.283 13.5434C30.283 15.1416 31.3986 16.4372 32.7748 16.4372Z" fill="#1A1D63"/>
<path d="M32.0513 13.8648C32.4952 13.8648 32.8551 13.4399 32.8551 12.9158C32.8551 12.3917 32.4952 11.9668 32.0513 11.9668C31.6073 11.9668 31.2474 12.3917 31.2474 12.9158C31.2474 13.4399 31.6073 13.8648 32.0513 13.8648Z" fill="white"/>
<path d="M34.302 14.4276C34.302 14.7384 34.0501 14.9903 33.7393 14.9903C33.4286 14.9903 33.1766 14.7384 33.1766 14.4276C33.1766 14.1169 33.4286 13.865 33.7393 13.865C34.0501 13.865 34.302 14.1169 34.302 14.4276Z" fill="white"/>
<path d="M17.2254 16.4372C18.6016 16.4372 19.7173 15.1416 19.7173 13.5434C19.7173 11.9452 18.6016 10.6497 17.2254 10.6497C15.8492 10.6497 14.7335 11.9452 14.7335 13.5434C14.7335 15.1416 15.8492 16.4372 17.2254 16.4372Z" fill="#1A1D63"/>
<path d="M17.9487 13.8648C18.3927 13.8648 18.7526 13.4399 18.7526 12.9158C18.7526 12.3917 18.3927 11.9668 17.9487 11.9668C17.5048 11.9668 17.1449 12.3917 17.1449 12.9158C17.1449 13.4399 17.5048 13.8648 17.9487 13.8648Z" fill="white"/>
<path d="M15.6981 14.4276C15.6981 14.7384 15.95 14.9903 16.2608 14.9903C16.5716 14.9903 16.8235 14.7384 16.8235 14.4276C16.8235 14.1169 16.5716 13.865 16.2608 13.865C15.95 13.865 15.6981 14.1169 15.6981 14.4276Z" fill="white"/>
<path d="M42.0215 33.5601C38.777 33.4523 38.023 34.5556 37.8589 35.2072L42.1123 34.924L42.0215 33.5601Z" fill="#3E4562"/>
<path d="M41.59 33.5528C41.7286 33.5528 41.8726 33.5553 42.0215 33.5602L42.1123 34.9241L37.8589 35.2073C38.0155 34.5857 38.7087 33.5528 41.59 33.5528ZM41.59 32.875C40.1972 32.875 39.1074 33.108 38.3508 33.5676C37.5917 34.0286 37.3069 34.6237 37.2016 35.0417C37.1486 35.252 37.1994 35.475 37.3384 35.6416C37.4676 35.7965 37.6586 35.8853 37.8588 35.8853C37.8738 35.8853 37.8889 35.8847 37.9039 35.8837L42.1573 35.6006C42.3367 35.5886 42.504 35.5059 42.6224 35.3706C42.7408 35.2354 42.8006 35.0585 42.7887 34.8791L42.6979 33.5152C42.6748 33.1677 42.3921 32.8942 42.044 32.8827C41.8898 32.8776 41.7371 32.875 41.59 32.875Z" fill="#1A1D63"/>
<path d="M7.97848 33.5601C11.223 33.4523 11.9769 34.5556 12.1411 35.2072L7.8877 34.924L7.97848 33.5601Z" fill="#3E4562"/>
<path d="M8.41001 33.5528C11.2913 33.5527 11.9844 34.5856 12.141 35.2073L7.88766 34.9241L7.97845 33.5602C8.12738 33.5553 8.2714 33.5529 8.41001 33.5528ZM8.41038 32.875V33.5529L8.41022 32.875C8.26275 32.875 8.11001 32.8776 7.95592 32.8827C7.60784 32.8943 7.32516 33.1677 7.302 33.5152L7.21121 34.8791C7.19927 35.0585 7.25909 35.2354 7.37751 35.3706C7.49594 35.5059 7.66322 35.5886 7.84261 35.6006L12.096 35.8837C12.111 35.8847 12.1261 35.8853 12.1411 35.8853C12.3413 35.8853 12.5323 35.7966 12.6616 35.6416C12.8005 35.475 12.8514 35.252 12.7984 35.0417C12.6931 34.6237 12.4082 34.0287 11.6492 33.5677C10.8926 33.108 9.80289 32.875 8.41038 32.875Z" fill="#1A1D63"/>
<path opacity="0.3" d="M40.1329 34.4291C39.7584 37.9165 40.9505 40.0626 44.7004 40.0187C48.4901 39.8722 49.7144 37.7585 49.6064 34.6174C49.6924 31.5374 40.2208 31.3234 40.1329 34.4291Z" fill="#1A1D63"/>
<path opacity="0.3" d="M9.86669 34.4291C10.2412 37.9165 9.04914 40.0626 5.29924 40.0187C1.5095 39.8722 0.285209 37.7585 0.393204 34.6174C0.307267 31.5374 9.77877 31.3234 9.86669 34.4291Z" fill="#1A1D63"/>
<path d="M40.4827 33.9352C40.1431 36.6606 41.2447 38.3403 44.6992 38.3122C48.1903 38.204 49.3149 36.5537 49.2106 34.0982C49.2849 31.6906 40.5588 31.5076 40.4827 33.9352Z" fill="#3E4562"/>
<path opacity="0.5" d="M49.1571 35.2419C48.8807 37.0556 47.6157 38.2221 44.6991 38.3123C42.2284 38.3327 40.9613 37.479 40.5649 35.9944C42.5809 36.6963 45.9334 37.2871 49.1571 35.2419Z" fill="#1A1D63"/>
<path d="M9.51737 33.9352C9.85695 36.6606 8.75536 38.3403 5.30081 38.3122C1.80972 38.204 0.685128 36.5537 0.789525 34.0982C0.715165 31.6906 9.44124 31.5076 9.51737 33.9352Z" fill="#3E4562"/>
<path opacity="0.5" d="M0.842651 35.2419C1.11903 37.0556 2.3841 38.2221 5.30065 38.3123C7.77134 38.3327 9.0385 37.479 9.43481 35.9944C7.41883 36.6963 4.06634 37.2871 0.842651 35.2419Z" fill="#1A1D63"/>
<path d="M58.566 30.176C57.554 30.176 56.5787 30.0587 55.64 29.824C54.716 29.5747 53.9827 29.2667 53.44 28.9L54.584 26.436C55.1267 26.7733 55.7647 27.052 56.498 27.272C57.246 27.4773 57.9793 27.58 58.698 27.58C59.49 27.58 60.0473 27.4847 60.37 27.294C60.7073 27.1033 60.876 26.8393 60.876 26.502C60.876 26.2233 60.744 26.018 60.48 25.886C60.2307 25.7393 59.8933 25.6293 59.468 25.556C59.0427 25.4827 58.5733 25.4093 58.06 25.336C57.5613 25.2627 57.0553 25.1673 56.542 25.05C56.0287 24.918 55.5593 24.7273 55.134 24.478C54.7087 24.2287 54.364 23.8913 54.1 23.466C53.8507 23.0407 53.726 22.4907 53.726 21.816C53.726 21.068 53.9387 20.408 54.364 19.836C54.804 19.264 55.4347 18.8167 56.256 18.494C57.0773 18.1567 58.06 17.988 59.204 17.988C60.0107 17.988 60.832 18.076 61.668 18.252C62.504 18.428 63.2007 18.6847 63.758 19.022L62.614 21.464C62.042 21.1267 61.4627 20.8993 60.876 20.782C60.304 20.65 59.7467 20.584 59.204 20.584C58.4413 20.584 57.884 20.6867 57.532 20.892C57.18 21.0973 57.004 21.3613 57.004 21.684C57.004 21.9773 57.1287 22.1973 57.378 22.344C57.642 22.4907 57.9867 22.608 58.412 22.696C58.8373 22.784 59.2993 22.8647 59.798 22.938C60.3113 22.9967 60.8247 23.092 61.338 23.224C61.8513 23.356 62.3133 23.5467 62.724 23.796C63.1493 24.0307 63.494 24.3607 63.758 24.786C64.022 25.1967 64.154 25.7393 64.154 26.414C64.154 27.1473 63.934 27.8 63.494 28.372C63.054 28.9293 62.416 29.3693 61.58 29.692C60.7587 30.0147 59.754 30.176 58.566 30.176ZM73.4655 17.988C74.4042 17.988 75.2402 18.1787 75.9735 18.56C76.7215 18.9267 77.3082 19.4987 77.7335 20.276C78.1588 21.0387 78.3715 22.0213 78.3715 23.224V30H74.9395V23.752C74.9395 22.7987 74.7268 22.0947 74.3015 21.64C73.8908 21.1853 73.3042 20.958 72.5415 20.958C71.9988 20.958 71.5075 21.0753 71.0675 21.31C70.6422 21.53 70.3048 21.8747 70.0555 22.344C69.8208 22.8133 69.7035 23.4147 69.7035 24.148V30H66.2715V13.676H69.7035V21.442L68.9335 20.452C69.3588 19.66 69.9675 19.0513 70.7595 18.626C71.5515 18.2007 72.4535 17.988 73.4655 17.988ZM87.2004 30.176C85.939 30.176 84.817 29.912 83.8344 29.384C82.8664 28.856 82.0964 28.1373 81.5244 27.228C80.967 26.304 80.6884 25.2553 80.6884 24.082C80.6884 22.894 80.967 21.8453 81.5244 20.936C82.0964 20.012 82.8664 19.2933 83.8344 18.78C84.817 18.252 85.939 17.988 87.2004 17.988C88.447 17.988 89.5617 18.252 90.5444 18.78C91.527 19.2933 92.297 20.0047 92.8544 20.914C93.4117 21.8233 93.6904 22.8793 93.6904 24.082C93.6904 25.2553 93.4117 26.304 92.8544 27.228C92.297 28.1373 91.527 28.856 90.5444 29.384C89.5617 29.912 88.447 30.176 87.2004 30.176ZM87.2004 27.36C87.7724 27.36 88.2857 27.228 88.7404 26.964C89.195 26.7 89.5544 26.326 89.8184 25.842C90.0824 25.3433 90.2144 24.7567 90.2144 24.082C90.2144 23.3927 90.0824 22.806 89.8184 22.322C89.5544 21.838 89.195 21.464 88.7404 21.2C88.2857 20.936 87.7724 20.804 87.2004 20.804C86.6284 20.804 86.115 20.936 85.6604 21.2C85.2057 21.464 84.839 21.838 84.5604 22.322C84.2964 22.806 84.1644 23.3927 84.1644 24.082C84.1644 24.7567 84.2964 25.3433 84.5604 25.842C84.839 26.326 85.2057 26.7 85.6604 26.964C86.115 27.228 86.6284 27.36 87.2004 27.36ZM95.9844 30V18.164H99.2624V21.508L98.8004 20.54C99.1524 19.704 99.7171 19.0733 100.494 18.648C101.272 18.208 102.218 17.988 103.332 17.988V21.156C103.186 21.1413 103.054 21.134 102.936 21.134C102.819 21.1193 102.694 21.112 102.562 21.112C101.624 21.112 100.861 21.3833 100.274 21.926C99.7024 22.454 99.4164 23.2827 99.4164 24.412V30H95.9844ZM110.621 30.176C109.228 30.176 108.143 29.824 107.365 29.12C106.588 28.4013 106.199 27.338 106.199 25.93V15.546H109.631V25.886C109.631 26.3847 109.763 26.7733 110.027 27.052C110.291 27.316 110.651 27.448 111.105 27.448C111.648 27.448 112.11 27.3013 112.491 27.008L113.415 29.428C113.063 29.6773 112.638 29.868 112.139 30C111.655 30.1173 111.149 30.176 110.621 30.176ZM104.373 21.068V18.428H112.579V21.068H104.373ZM120.851 30.176C119.501 30.176 118.313 29.912 117.287 29.384C116.275 28.856 115.49 28.1373 114.933 27.228C114.375 26.304 114.097 25.2553 114.097 24.082C114.097 22.894 114.368 21.8453 114.911 20.936C115.468 20.012 116.223 19.2933 117.177 18.78C118.13 18.252 119.208 17.988 120.411 17.988C121.569 17.988 122.611 18.2373 123.535 18.736C124.473 19.22 125.214 19.924 125.757 20.848C126.299 21.7573 126.571 22.85 126.571 24.126C126.571 24.258 126.563 24.412 126.549 24.588C126.534 24.7493 126.519 24.9033 126.505 25.05H116.891V23.048H124.701L123.381 23.642C123.381 23.026 123.256 22.4907 123.007 22.036C122.757 21.5813 122.413 21.2293 121.973 20.98C121.533 20.716 121.019 20.584 120.433 20.584C119.846 20.584 119.325 20.716 118.871 20.98C118.431 21.2293 118.086 21.5887 117.837 22.058C117.587 22.5127 117.463 23.0553 117.463 23.686V24.214C117.463 24.8593 117.602 25.4313 117.881 25.93C118.174 26.414 118.577 26.788 119.091 27.052C119.619 27.3013 120.235 27.426 120.939 27.426C121.569 27.426 122.119 27.3307 122.589 27.14C123.073 26.9493 123.513 26.6633 123.909 26.282L125.735 28.262C125.192 28.878 124.51 29.3547 123.689 29.692C122.867 30.0147 121.921 30.176 120.851 30.176ZM134.729 30.176C133.38 30.176 132.192 29.912 131.165 29.384C130.153 28.856 129.369 28.1373 128.811 27.228C128.254 26.304 127.975 25.2553 127.975 24.082C127.975 22.894 128.247 21.8453 128.789 20.936C129.347 20.012 130.102 19.2933 131.055 18.78C132.009 18.252 133.087 17.988 134.289 17.988C135.448 17.988 136.489 18.2373 137.413 18.736C138.352 19.22 139.093 19.924 139.635 20.848C140.178 21.7573 140.449 22.85 140.449 24.126C140.449 24.258 140.442 24.412 140.427 24.588C140.413 24.7493 140.398 24.9033 140.383 25.05H130.769V23.048H138.579L137.259 23.642C137.259 23.026 137.135 22.4907 136.885 22.036C136.636 21.5813 136.291 21.2293 135.851 20.98C135.411 20.716 134.898 20.584 134.311 20.584C133.725 20.584 133.204 20.716 132.749 20.98C132.309 21.2293 131.965 21.5887 131.715 22.058C131.466 22.5127 131.341 23.0553 131.341 23.686V24.214C131.341 24.8593 131.481 25.4313 131.759 25.93C132.053 26.414 132.456 26.788 132.969 27.052C133.497 27.3013 134.113 27.426 134.817 27.426C135.448 27.426 135.998 27.3307 136.467 27.14C136.951 26.9493 137.391 26.6633 137.787 26.282L139.613 28.262C139.071 28.878 138.389 29.3547 137.567 29.692C136.746 30.0147 135.8 30.176 134.729 30.176ZM144.032 30.176C143.446 30.176 142.94 29.978 142.514 29.582C142.104 29.1713 141.898 28.6507 141.898 28.02C141.898 27.3893 142.104 26.8833 142.514 26.502C142.94 26.106 143.446 25.908 144.032 25.908C144.634 25.908 145.14 26.106 145.55 26.502C145.961 26.8833 146.166 27.3893 146.166 28.02C146.166 28.6507 145.961 29.1713 145.55 29.582C145.14 29.978 144.634 30.176 144.032 30.176ZM155.967 30V27.69L155.747 27.184V23.048C155.747 22.3147 155.52 21.7427 155.065 21.332C154.625 20.9213 153.943 20.716 153.019 20.716C152.388 20.716 151.765 20.8187 151.149 21.024C150.548 21.2147 150.034 21.4787 149.609 21.816L148.377 19.418C149.022 18.9633 149.8 18.6113 150.709 18.362C151.618 18.1127 152.542 17.988 153.481 17.988C155.285 17.988 156.686 18.4133 157.683 19.264C158.68 20.1147 159.179 21.442 159.179 23.246V30H155.967ZM152.359 30.176C151.435 30.176 150.643 30.022 149.983 29.714C149.323 29.3913 148.817 28.9587 148.465 28.416C148.113 27.8733 147.937 27.2647 147.937 26.59C147.937 25.886 148.106 25.27 148.443 24.742C148.795 24.214 149.345 23.8033 150.093 23.51C150.841 23.202 151.816 23.048 153.019 23.048H156.165V25.05H153.393C152.586 25.05 152.029 25.182 151.721 25.446C151.428 25.71 151.281 26.04 151.281 26.436C151.281 26.876 151.45 27.228 151.787 27.492C152.139 27.7413 152.616 27.866 153.217 27.866C153.789 27.866 154.302 27.734 154.757 27.47C155.212 27.1913 155.542 26.788 155.747 26.26L156.275 27.844C156.026 28.6067 155.571 29.186 154.911 29.582C154.251 29.978 153.4 30.176 152.359 30.176ZM162.285 30V18.164H165.717V30H162.285ZM164.001 16.514C163.371 16.514 162.857 16.3307 162.461 15.964C162.065 15.5973 161.867 15.1427 161.867 14.6C161.867 14.0573 162.065 13.6027 162.461 13.236C162.857 12.8693 163.371 12.686 164.001 12.686C164.632 12.686 165.145 12.862 165.541 13.214C165.937 13.5513 166.135 13.9913 166.135 14.534C166.135 15.106 165.937 15.5827 165.541 15.964C165.16 16.3307 164.647 16.514 164.001 16.514Z" fill="#3E4562"/>
</svg>
